<?xml version="1.0" standalone="no"?>
<!DOCTYPE svg PUBLIC "-//W3C//DTD SVG 20010904//EN"
 "http://www.w3.org/TR/2001/REC-SVG-20010904/DTD/svg10.dtd">
<svg version="1.0" xmlns="http://www.w3.org/2000/svg"
 width="500.000000pt" height="500.000000pt" viewBox="0 0 500.000000 500.000000"
 preserveAspectRatio="xMidYMid meet">
<metadata>
Created by potrace 1.11, written by Peter Selinger 2001-2013
</metadata>
<g transform="translate(0.000000,500.000000) scale(0.100000,-0.100000)"
fill="#000000" stroke="none">
<path d="M2315 3903 c-16 -2 -66 -11 -110 -19 -44 -9 -91 -17 -105 -20 -14 -3
-71 -19 -127 -36 l-103 -31 0 -493 c0 -462 1 -496 20 -556 64 -209 259 -360
532 -414 84 -16 85 -16 185 9 252 63 418 192 495 385 22 57 23 61 25 560 l2
503 -35 15 c-46 19 -250 72 -311 80 -26 3 -52 9 -58 12 -11 7 -362 11 -410 5z
m328 -41 c29 -2 47 -9 47 -17 0 -8 19 -15 48 -19 74 -11 202 -43 263 -65 l56
-21 0 -448 c0 -360 -3 -457 -14 -497 -59 -203 -225 -340 -483 -397 -61 -14
-70 -13 -160 9 -241 59 -409 210 -450 403 -8 38 -10 188 -8 495 l3 439 80 27
c98 34 88 37 -15 6 l-75 -23 -3 -459 c-2 -335 1 -472 9 -505 54 -200 216 -339
467 -401 90 -22 93 -22 159 -5 224 58 366 154 442 296 59 110 61 131 61 621
l0 447 -39 16 c-49 19 -219 62 -283 71 -27 4 -48 11 -48 15 0 6 68 -4 165 -25
33 -7 159 -43 188 -54 l27 -11 0 -458 c0 -379 -3 -468 -15 -517 -53 -202 -221
-341 -495 -410 -54 -14 -74 -15 -124 -5 -222 44 -399 161 -480 319 -47 90 -49
110 -50 604 l-1 467 75 24 c134 43 204 59 315 72 33 3 62 8 64 9 5 5 217 3
274 -3z"/>
<path d="M2315 3845 c-127 -18 -162 -24 -189 -36 -24 -11 -11 -9 134 17 100
18 293 26 368 15 28 -4 52 -4 52 1 0 4 -3 8 -7 8 -5 0 -64 2 -133 5 -76 2
-164 -1 -225 -10z"/>
<path d="M2478 3696 c-12 -24 -26 -37 -45 -42 -58 -12 -58 -13 -24 -47 17 -19
29 -35 27 -38 -6 -5 -15 -69 -10 -69 2 0 19 8 39 17 33 16 37 16 70 0 20 -9
37 -17 39 -17 2 0 0 18 -4 41 -7 36 -5 44 21 70 16 16 29 32 29 34 0 3 -15 5
-34 5 -34 0 -51 14 -81 65 -9 15 -13 12 -27 -19z"/>
<path d="M2695 3631 c-4 -13 -20 -27 -36 -33 -28 -9 -29 -12 -15 -27 9 -10 16
-30 16 -44 0 -29 9 -34 28 -15 9 9 18 9 37 0 34 -16 33 -16 27 13 -3 16 2 33
13 45 10 11 15 21 12 21 -4 1 -11 3 -17 4 -5 1 -14 3 -20 4 -5 0 -16 13 -23
28 l-14 27 -8 -23z"/>
<path d="M2275 3620 c-4 -13 -15 -20 -31 -20 -28 0 -31 -12 -8 -31 11 -9 14
-22 10 -41 -6 -29 2 -36 21 -17 8 8 20 9 43 1 30 -11 31 -10 28 12 -1 13 6 33
16 45 11 12 17 21 15 22 -2 0 -13 2 -24 4 -11 2 -27 13 -37 24 -20 26 -25 26
-33 1z"/>
<path d="M2110 3570 c0 -5 -7 -10 -16 -10 -11 0 -14 -5 -10 -16 3 -9 6 -21 6
-28 0 -7 13 -13 30 -13 16 0 27 4 24 9 -3 5 -1 14 4 21 7 8 3 17 -14 30 -13
10 -24 13 -24 7z"/>
<path d="M2857 3560 c-11 -11 -14 -20 -8 -24 6 -4 8 -12 5 -19 -2 -8 6 -12 25
-13 23 -1 30 4 34 22 2 13 -3 28 -15 38 -22 19 -19 19 -41 -4z"/>
<path d="M2602 3369 c-30 -15 -62 -35 -73 -44 -17 -17 -20 -16 -51 10 -48 41
-87 55 -115 42 -13 -5 -23 -15 -23 -21 0 -7 -9 -19 -20 -29 -20 -17 -20 -17
-1 -45 35 -48 31 -64 -21 -83 -26 -9 -49 -15 -52 -12 -2 3 -14 2 -25 -2 -18
-5 -20 -12 -16 -48 6 -50 36 -80 94 -98 39 -11 40 -13 25 -30 -11 -12 -13 -25
-8 -41 4 -13 8 -38 9 -57 2 -34 25 -61 52 -61 19 0 72 28 96 51 26 24 28 24
63 -7 71 -63 129 -61 139 5 4 20 11 47 16 61 9 19 7 27 -8 37 -15 12 -16 15
-3 23 8 5 20 10 26 10 23 0 75 33 90 56 15 22 14 26 -13 69 -22 35 -34 45 -53
44 -55 -2 -62 0 -55 19 9 19 15 141 8 159 -8 22 -28 20 -81 -8z m-130 -57 c23
-21 25 -27 13 -39 -8 -8 -18 -21 -23 -30 -12 -21 -102 -31 -103 -12 0 8 -2 22
-4 31 -2 10 1 20 5 23 5 3 6 21 3 39 -4 28 -2 35 13 38 21 5 56 -13 96 -50z
m158 39 c0 -5 9 -13 20 -16 23 -7 25 -31 9 -88 -10 -37 -11 -38 -47 -31 -46 8
-95 59 -80 84 10 15 75 59 91 60 4 0 7 -4 7 -9z m-104 -98 c7 -10 14 -21 14
-24 0 -5 -44 -5 -58 0 -5 2 19 41 25 41 3 0 12 -8 19 -17z m32 -57 c7 -4 21
-24 31 -44 18 -35 18 -38 1 -69 -29 -55 -37 -60 -85 -58 -51 2 -55 4 -84 59
-18 35 -19 42 -6 56 8 9 15 20 15 25 0 5 8 17 17 27 17 19 83 22 111 4z m-138
-4 c0 -12 -28 -48 -33 -42 -2 3 -8 15 -11 28 -6 19 -4 22 18 22 14 0 26 -4 26
-8z m214 0 c7 -11 -4 -52 -14 -52 -4 0 -10 8 -14 18 -3 9 -9 23 -12 30 -6 13
31 17 40 4z m-269 -38 c13 -31 13 -39 -1 -74 l-16 -39 -41 15 c-66 23 -98 64
-62 78 8 3 15 11 15 19 0 13 41 34 72 36 11 1 23 -12 33 -35z m342 8 c7 -8 23
-16 35 -18 13 -1 26 -3 29 -3 4 -1 9 -10 12 -21 8 -32 -26 -58 -98 -76 -20 -5
-26 -1 -39 30 -13 31 -13 40 1 75 16 41 34 45 60 13z m-293 -105 c17 -28 17
-28 -8 -24 -34 4 -40 12 -26 37 6 12 13 20 14 18 1 -1 10 -16 20 -31z m226
-19 c0 -5 -13 -8 -30 -8 l-29 0 17 30 17 29 12 -22 c7 -12 12 -25 13 -29z
m-177 -61 l28 -32 -35 -32 c-45 -42 -84 -52 -103 -28 -18 25 -17 60 3 76 10 8
13 21 9 36 -5 23 -4 24 32 18 25 -5 48 -18 66 -38z m67 17 c0 -21 -26 -36 -37
-22 -22 29 -21 34 8 34 16 0 29 -5 29 -12z m110 -3 c-7 -15 -6 -23 5 -35 18
-18 20 -63 3 -80 -7 -7 -23 -10 -35 -7 -24 7 -93 59 -93 71 0 5 12 22 26 39
21 25 33 31 65 31 36 0 39 -2 29 -19z"/>
<path d="M2477 3142 c-33 -36 4 -82 53 -67 19 6 25 22 20 55 -5 33 -48 40 -73
12z"/>
<path d="M2110 2792 c0 -5 -10 -14 -22 -20 -13 -6 -17 -11 -10 -11 6 -1 12 -9
12 -19 0 -14 8 -19 30 -19 16 0 27 4 24 9 -3 5 -1 14 4 21 7 8 3 17 -14 30
-13 10 -24 14 -24 9z"/>
<path d="M2277 2776 c-10 -14 -26 -26 -37 -26 -24 0 -26 -13 -4 -31 11 -9 14
-22 10 -41 -6 -28 -5 -28 23 -14 25 13 31 13 50 -1 22 -15 23 -15 20 15 -2 19
3 38 15 51 19 21 19 21 -7 21 -18 0 -31 8 -40 26 l-14 26 -16 -26z"/>
<path d="M2476 2762 c-14 -31 -23 -38 -48 -40 -48 -4 -52 -12 -22 -43 23 -24
26 -33 20 -68 l-6 -41 41 16 c38 16 43 16 75 0 19 -9 36 -16 38 -16 2 0 0 17
-5 38 -7 33 -5 40 22 68 32 33 30 44 -12 44 -32 0 -56 21 -65 56 -9 34 -18 30
-38 -14z"/>
<path d="M2694 2782 c-4 -15 -17 -25 -35 -29 -27 -5 -28 -7 -14 -26 8 -12 15
-34 15 -49 0 -27 1 -28 23 -13 21 13 25 13 45 -1 21 -15 22 -14 22 21 0 22 6
38 15 41 24 9 17 24 -10 24 -14 0 -25 4 -25 8 0 5 -7 17 -15 28 -14 19 -15 18
-21 -4z"/>
<path d="M2861 2781 c-15 -12 -20 -21 -13 -25 6 -4 9 -12 6 -20 -3 -9 5 -13
26 -13 22 0 30 5 30 18 0 9 6 20 13 22 7 3 5 6 -5 6 -9 1 -21 7 -25 15 -7 13
-12 12 -32 -3z"/>
<path d="M1648 3253 c-48 -52 -54 -78 -33 -143 6 -19 8 -19 31 -3 36 23 52 61
48 112 -4 59 -15 67 -46 34z"/>
<path d="M3304 3246 c-10 -56 3 -102 38 -131 l31 -27 12 29 c17 39 8 82 -24
122 -37 47 -49 49 -57 7z"/>
<path d="M1475 3139 c11 -65 31 -97 71 -114 20 -8 38 -15 40 -15 2 0 4 17 4
39 0 46 -23 78 -80 110 l-42 24 7 -44z"/>
<path d="M3473 3153 c-53 -34 -67 -61 -64 -121 1 -22 2 -22 37 -7 21 8 43 23
50 33 17 22 35 105 25 114 -4 5 -26 -4 -48 -19z"/>
<path d="M1719 3096 c-46 -32 -65 -63 -64 -106 0 -45 20 -49 63 -13 24 21 34
40 41 75 11 63 3 73 -40 44z"/>
<path d="M3238 3114 c-10 -10 3 -88 18 -111 15 -24 72 -58 82 -49 12 12 2 82
-15 104 -21 27 -77 64 -85 56z"/>
<path d="M3370 3055 c0 -11 -2 -67 -4 -125 -7 -200 -74 -366 -211 -519 -67
-75 -222 -174 -317 -203 -37 -11 -47 -21 -29 -32 15 -10 141 43 213 90 162
104 277 252 338 433 25 76 29 100 35 221 3 67 0 104 -10 125 -11 24 -14 26
-15 10z"/>
<path d="M1604 3023 c-4 -20 -4 -79 -1 -132 12 -200 103 -392 252 -535 111
-106 345 -220 345 -168 0 5 -19 14 -42 21 -90 27 -202 95 -282 171 -68 65 -76
76 -61 85 27 15 65 55 66 68 1 7 3 23 5 37 2 14 1 37 -2 52 -5 24 -8 26 -25
15 -11 -7 -31 -29 -46 -49 -21 -32 -25 -45 -19 -80 l6 -43 -25 30 c-37 45 -90
151 -115 230 -16 51 -23 106 -27 203 -6 131 -16 165 -29 95z"/>
<path d="M1445 2971 c14 -71 52 -115 112 -127 l31 -6 -9 43 c-11 49 -34 72
-96 93 -38 13 -41 13 -38 -3z"/>
<path d="M3520 2978 c-56 -16 -88 -45 -100 -90 -6 -22 -10 -42 -8 -43 10 -11
85 17 100 37 14 18 53 111 45 107 -1 0 -18 -5 -37 -11z"/>
<path d="M1730 2919 c-50 -30 -70 -58 -70 -103 0 -37 1 -38 28 -31 40 10 69
41 81 90 19 74 16 77 -39 44z"/>
<path d="M3220 2923 c0 -64 40 -125 90 -138 22 -5 26 -3 28 22 4 53 -38 109
-95 127 -18 6 -23 3 -23 -11z"/>
<path d="M3191 2753 c3 -62 22 -99 60 -119 17 -8 33 -14 35 -12 5 6 8 37 6 69
-2 26 -48 80 -85 101 -17 9 -18 5 -16 -39z"/>
<path d="M1752 2759 c-40 -38 -55 -73 -47 -111 8 -33 7 -33 45 -13 37 19 50
44 57 106 6 59 -6 64 -55 18z"/>
<path d="M1470 2763 c0 -17 51 -83 73 -95 12 -6 39 -12 60 -13 33 -1 36 1 31
19 -11 37 -35 67 -62 77 -38 15 -102 22 -102 12z"/>
<path d="M3447 2760 c-36 -11 -55 -27 -73 -63 -19 -35 -14 -41 31 -40 42 1 77
27 105 76 l21 37 -28 -1 c-15 0 -41 -5 -56 -9z"/>
<path d="M3116 2634 c-11 -28 -6 -84 8 -113 19 -36 65 -67 70 -49 23 75 10
115 -55 166 -14 10 -18 10 -23 -4z"/>
<path d="M1557 2562 c-17 -7 -17 -9 1 -33 33 -41 83 -63 125 -55 45 8 46 23 8
60 -31 30 -98 43 -134 28z"/>
<path d="M3330 2555 c-14 -7 -33 -27 -43 -43 l-17 -31 45 -6 c34 -6 51 -3 72
10 33 22 73 68 66 77 -7 13 -96 8 -123 -7z"/>
<path d="M1927 2520 c-37 -52 -43 -89 -22 -131 l18 -33 28 32 c24 26 29 41 29
80 -1 26 -6 57 -13 69 -12 21 -13 21 -40 -17z"/>
<path d="M3029 2534 c-6 -16 -11 -48 -12 -71 -1 -34 4 -48 27 -72 34 -35 42
-33 55 16 11 39 -2 83 -39 130 l-20 25 -11 -28z"/>
<path d="M1670 2377 c-23 -12 -43 -27 -44 -32 0 -6 25 -17 57 -25 53 -13 60
-13 92 4 46 25 51 43 15 61 -40 21 -70 19 -120 -8z"/>
<path d="M3208 2384 c-34 -18 -28 -37 19 -59 36 -17 72 -15 126 8 l28 12 -43
28 c-47 30 -89 34 -130 11z"/>
<path d="M2495 2269 c-10 -15 3 -25 16 -12 7 7 7 13 1 17 -6 3 -14 1 -17 -5z"/>
<path d="M2302 2243 c9 -18 41 -90 49 -110 8 -22 12 -23 152 -23 l143 0 17 47
c20 54 17 63 -13 35 -26 -24 -68 -34 -93 -20 -10 5 -26 23 -37 40 l-18 30 -17
-31 c-20 -39 -55 -54 -92 -40 -34 13 -73 48 -73 66 0 7 -5 13 -11 13 -6 0 -9
-3 -7 -7z"/>
<path d="M2686 2241 c-4 -5 -2 -12 3 -15 5 -4 12 -2 15 3 4 5 2 12 -3 15 -5 4
-12 2 -15 -3z"/>
<path d="M2370 2078 c0 -5 59 -8 132 -8 72 0 128 3 125 7 -10 9 -257 10 -257
1z"/>
<path d="M916 1775 c-18 -13 -20 -29 -21 -147 -1 -157 4 -168 83 -168 76 0 82
12 82 161 0 89 -4 131 -13 143 -18 25 -105 32 -131 11z m85 -54 c1 -3 3 -48 4
-99 1 -96 -8 -121 -40 -108 -20 7 -22 212 -2 219 14 5 36 -2 38 -12z"/>
<path d="M1099 1758 c-1 -38 -1 -279 0 -290 1 -5 37 -8 81 -8 79 0 80 0 80 25
0 26 -1 27 -70 29 l-35 1 -1 130 c-1 72 -2 133 -3 138 -1 4 -12 7 -26 7 -21 0
-25 -5 -26 -32z"/>
<path d="M1290 1781 c0 -5 16 -47 36 -93 28 -66 36 -98 37 -153 2 -68 3 -70
30 -73 l27 -3 0 70 c0 57 6 84 35 152 43 101 43 111 8 107 -22 -2 -30 -12 -49
-63 -21 -57 -23 -59 -32 -35 -36 92 -41 100 -66 100 -15 0 -26 -4 -26 -9z"/>
<path d="M1527 1783 c-3 -5 -5 -79 -5 -166 l0 -158 27 3 c25 3 26 5 28 81 1
44 4 81 7 85 3 3 6 -5 6 -17 0 -12 7 -51 16 -86 13 -50 21 -65 35 -65 17 0 24
21 45 135 10 54 14 39 14 -49 l0 -87 28 3 27 3 0 160 0 160 -35 0 -34 0 -18
-80 c-10 -44 -21 -87 -24 -95 -6 -13 -21 34 -38 118 -11 54 -17 62 -46 62 -16
0 -31 -3 -33 -7z"/>
<path d="M1798 1784 c-2 -5 -4 -79 -4 -164 l1 -155 28 -3 c27 -3 27 -2 27 52
l0 56 39 0 c55 0 71 25 71 110 0 90 -11 103 -93 108 -35 2 -66 0 -69 -4z m104
-71 c2 -10 1 -34 -2 -53 -4 -27 -10 -35 -25 -35 -17 0 -20 8 -23 53 -3 49 -2
52 21 52 15 0 26 -7 29 -17z"/>
<path d="M2000 1625 l0 -166 28 3 27 3 0 160 0 160 -27 3 -28 3 0 -166z"/>
<path d="M2145 1718 c-9 -40 -19 -86 -22 -103 -2 -16 -11 -55 -19 -86 -18 -73
-19 -69 15 -69 25 0 30 5 35 33 6 30 9 33 41 33 32 0 35 -3 41 -33 5 -28 10
-33 36 -33 23 0 28 4 24 18 -3 9 -12 53 -21 97 -9 44 -23 110 -31 148 -15 66
-16 67 -49 67 -33 0 -33 0 -50 -72z m68 -103 c6 -39 5 -41 -19 -41 -23 0 -25
3 -19 31 3 16 9 46 12 65 6 33 7 33 13 10 4 -14 10 -43 13 -65z"/>
<path d="M2506 1782 c-3 -5 -19 -71 -36 -148 -16 -76 -32 -147 -34 -156 -3
-14 2 -18 24 -18 25 0 30 5 35 33 6 29 10 32 41 33 30 1 35 -3 42 -30 6 -24
15 -32 35 -34 15 -2 27 0 27 5 0 10 -58 280 -66 306 -6 18 -58 25 -68 9z m48
-162 c6 -43 5 -46 -17 -48 -23 -1 -23 0 -16 46 4 26 8 56 9 67 l1 20 8 -20 c5
-11 11 -40 15 -65z"/>
<path d="M2713 1783 c-29 -6 -34 -26 -35 -138 -1 -139 1 -152 18 -169 16 -17
99 -22 121 -8 17 11 30 51 25 79 -6 30 -52 34 -52 4 0 -26 -26 -47 -43 -33 -9
8 -13 40 -12 109 0 98 0 98 25 98 18 0 26 -6 28 -21 3 -21 26 -34 47 -27 15 5
6 75 -13 96 -15 16 -55 20 -109 10z"/>
<path d="M2941 1753 c-6 -21 -12 -49 -15 -63 -2 -14 -14 -68 -25 -120 -26
-116 -26 -110 4 -110 25 0 34 10 39 47 2 13 12 18 37 18 29 0 34 -4 43 -32 7
-27 14 -33 36 -33 l28 0 -24 108 c-13 59 -29 133 -35 165 -11 56 -12 57 -45
57 -30 0 -34 -4 -43 -37z m60 -153 c3 -20 0 -25 -18 -26 -26 -1 -27 5 -11 78
l12 53 7 -40 c4 -22 9 -51 10 -65z"/>
<path d="M3120 1626 l0 -166 63 0 c97 0 100 5 102 146 1 66 -3 131 -8 145 -9
31 -20 34 -99 38 l-58 2 0 -165z m108 -3 c-3 -102 -4 -106 -25 -108 -25 -2
-25 -4 -25 100 0 118 -1 115 27 115 l26 0 -3 -107z"/>
<path d="M3327 1783 c-2 -5 -3 -78 -3 -163 l1 -155 83 -3 83 -3 -3 28 c-3 27
-5 28 -55 28 l-53 -1 0 41 0 41 42 0 c38 0 42 2 42 24 1 22 -4 25 -42 28 -42
3 -42 3 -42 42 l0 39 53 3 c48 3 52 5 55 31 l3 27 -80 0 c-44 0 -81 -3 -84 -7z"/>
<path d="M3529 1751 c0 -23 0 -84 0 -136 0 -164 -2 -155 26 -155 28 0 28 0 26
88 -1 43 2 62 10 62 7 0 10 -2 7 -5 -3 -3 2 -36 11 -73 14 -54 21 -67 37 -67
19 0 20 4 48 144 9 43 12 31 11 -42 -1 -96 2 -107 31 -107 l24 0 -2 163 -3
162 -31 3 -31 3 -25 -103 -24 -103 -24 100 c-25 100 -25 100 -57 103 -32 3
-33 2 -34 -37z"/>
<path d="M3802 1625 l0 -165 29 0 29 0 0 163 0 163 -29 2 -29 2 0 -165z"/>
<path d="M3961 1768 c-5 -13 -22 -87 -38 -165 l-30 -143 28 0 c24 0 29 5 34
33 6 29 10 33 37 32 30 -1 40 -10 52 -47 5 -16 56 -27 56 -13 0 8 -60 289 -66
308 -8 27 -62 23 -73 -5z m54 -150 c6 -42 6 -44 -19 -44 -19 0 -25 4 -22 16 3
8 8 37 12 65 8 55 17 44 29 -37z"/>
<path d="M1286 1312 c-11 -3 -16 -11 -14 -25 l3 -21 1205 0 c663 -1 1213 1
1223 3 10 2 17 12 17 25 l0 21 -1208 0 c-665 0 -1216 -2 -1226 -3z"/>
<path d="M800 1121 c-12 -5 -15 -25 -15 -91 0 -71 3 -85 17 -88 14 -3 17 4 15
37 -3 48 8 45 17 -5 9 -43 30 -41 34 4 2 18 8 32 13 32 5 0 8 -16 6 -35 -4
-29 -1 -35 14 -35 17 0 19 9 19 89 0 68 -3 90 -14 94 -20 8 -33 -10 -41 -55
-10 -51 -21 -48 -29 7 -8 49 -13 56 -36 46z"/>
<path d="M992 1121 c-6 -3 -13 -20 -16 -36 -3 -17 -8 -41 -11 -55 -17 -86 -17
-90 -2 -90 8 0 17 8 19 18 3 10 13 19 23 19 10 0 20 -9 23 -19 2 -10 11 -18
19 -18 14 0 14 23 -2 85 -1 6 -6 29 -10 52 -7 42 -22 57 -43 44z m20 -114 c-9
-19 -20 10 -14 38 l6 30 6 -30 c4 -16 4 -34 2 -38z"/>
<path d="M1088 1112 c-9 -10 -7 -14 9 -18 18 -5 21 -14 21 -62 0 -87 1 -92 17
-92 12 0 15 15 15 74 0 56 4 75 15 80 8 3 15 11 15 18 0 18 -78 18 -92 0z"/>
<path d="M1213 1113 c-5 -10 -8 -52 -8 -93 1 -62 4 -75 18 -78 14 -3 17 4 17
38 0 29 4 40 13 38 12 -5 14 -9 16 -53 1 -15 7 -25 16 -25 12 0 15 16 15 88 0
49 -3 91 -6 95 -14 14 -29 -6 -28 -38 1 -24 -2 -35 -12 -35 -14 0 -17 10 -15
47 3 28 -16 39 -26 16z"/>
<path d="M1335 1121 c-3 -2 -5 -44 -5 -93 l0 -88 45 0 c33 0 45 4 45 15 0 10
-10 15 -30 15 -25 0 -30 4 -30 24 0 18 5 23 23 22 13 -1 22 5 22 14 0 8 -10
16 -22 18 -15 2 -23 10 -23 23 0 15 7 19 31 19 24 0 30 4 27 17 -2 13 -13 18
-41 18 -21 1 -40 -1 -42 -4z"/>
<path d="M1456 1123 c-3 -3 -6 -46 -6 -95 0 -72 3 -88 15 -88 11 0 15 12 15
47 0 53 6 54 15 3 6 -35 20 -58 30 -49 2 3 7 23 11 45 8 55 14 55 14 1 0 -35
4 -47 15 -47 16 0 16 2 17 104 1 63 -5 86 -23 86 -11 0 -27 -37 -32 -74 -5
-43 -15 -40 -22 8 -7 44 -33 75 -49 59z"/>
<path d="M1651 1112 c-5 -9 -12 -33 -15 -53 -3 -20 -7 -42 -10 -50 -16 -50
-16 -69 0 -69 9 0 18 9 21 19 6 24 40 23 46 -1 3 -10 12 -18 20 -18 16 0 16
15 -2 90 -5 19 -12 47 -15 61 -7 33 -32 44 -45 21z m29 -94 c0 -10 -4 -18 -10
-18 -5 0 -10 15 -10 33 0 24 3 28 10 17 5 -8 10 -23 10 -32z"/>
<path d="M1758 1118 c-10 -7 -10 -11 5 -22 13 -10 17 -28 17 -85 0 -56 3 -71
15 -71 16 0 17 10 18 98 0 35 4 52 12 52 14 0 29 29 17 31 -36 6 -73 5 -84 -3z"/>
<path d="M1883 1123 c-9 -3 -13 -32 -13 -94 0 -72 3 -89 15 -89 12 0 15 17 15
95 0 52 -1 95 -2 94 -2 0 -9 -3 -15 -6z"/>
<path d="M1953 1119 c-21 -8 -23 -15 -23 -78 0 -91 5 -101 46 -101 27 0 37 5
43 23 5 12 7 25 4 30 -8 13 -33 7 -33 -8 0 -8 -6 -15 -13 -15 -10 0 -13 17
-14 60 0 44 3 60 13 60 8 0 14 -7 14 -15 0 -18 29 -20 31 -2 2 14 -2 41 -6 45
-7 8 -43 9 -62 1z"/>
<path d="M2096 1122 c-3 -5 -14 -48 -25 -95 -15 -70 -16 -87 -5 -87 7 0 17 8
22 17 14 23 40 25 47 2 4 -10 13 -19 22 -19 16 0 16 0 -3 85 -2 11 -7 35 -10
53 -6 32 -38 60 -48 44z m20 -114 c-16 -11 -19 -2 -10 34 l8 33 6 -30 c3 -16
1 -33 -4 -37z"/>
<path d="M2200 1035 l0 -95 45 0 c33 0 45 4 45 15 0 10 -10 15 -30 15 l-30 0
0 74 c0 56 -4 75 -15 80 -13 4 -15 -9 -15 -89z"/>
<path d="M2408 1123 c-18 -4 -26 -26 -26 -70 -1 -16 7 -25 24 -29 28 -7 50
-39 34 -49 -13 -8 -32 4 -25 16 4 5 -1 9 -9 9 -22 0 -28 -17 -16 -40 12 -23
64 -28 77 -7 23 37 12 79 -25 93 -16 6 -29 18 -29 28 0 21 16 21 32 -1 16 -22
38 -7 29 20 -3 12 -8 23 -9 25 -5 6 -41 8 -57 5z"/>
<path d="M2522 1112 c-14 -14 -17 -32 -16 -85 3 -77 7 -87 39 -87 39 0 55 11
55 36 0 27 -24 33 -34 9 -13 -34 -26 -12 -26 45 0 47 3 60 15 60 8 0 15 -7 15
-15 0 -8 7 -15 15 -15 17 0 21 45 5 55 -23 14 -52 13 -68 -3z"/>
<path d="M2636 1123 c-3 -3 -6 -46 -6 -95 0 -72 3 -88 15 -88 12 0 15 17 15
89 0 83 -7 111 -24 94z"/>
<path d="M2695 1122 c-3 -3 -5 -45 -5 -94 l0 -88 45 0 c51 0 66 26 18 32 -34
4 -41 43 -8 43 11 0 21 8 23 18 3 13 -3 17 -22 17 -19 0 -26 5 -26 20 0 15 7
20 29 20 32 0 44 10 33 25 -7 10 -78 15 -87 7z"/>
<path d="M2819 1127 c-1 -1 -3 -44 -4 -95 -3 -82 -1 -93 13 -90 13 3 17 14 16
48 l-1 45 21 -47 c22 -53 46 -63 47 -20 4 130 3 152 -8 156 -17 7 -23 -4 -24
-48 l0 -41 -17 42 c-13 34 -36 61 -43 50z"/>
<path d="M2968 1123 c-22 -5 -28 -30 -25 -105 2 -65 13 -81 52 -76 35 4 55 32
37 50 -11 11 -16 9 -28 -7 -20 -27 -31 -8 -28 48 3 74 3 74 23 48 20 -26 42
-21 38 9 -2 11 -6 22 -9 25 -8 8 -40 12 -60 8z"/>
<path d="M3085 1121 c-18 -5 -20 -14 -19 -91 l0 -85 47 -3 c37 -2 47 0 47 12
0 11 -10 16 -31 16 -26 0 -30 3 -27 23 2 12 10 22 18 22 17 0 31 15 24 27 -3
4 -14 8 -25 8 -32 0 -25 38 9 42 34 4 37 32 2 33 -14 1 -34 -1 -45 -4z"/>
<path d="M3207 1119 c-12 -7 -17 -23 -17 -50 0 -35 3 -41 30 -50 31 -11 43
-49 15 -49 -8 0 -15 7 -15 15 0 8 -7 15 -16 15 -11 0 -14 -8 -12 -27 3 -25 7
-28 43 -28 l40 0 3 46 c3 44 2 47 -28 52 -21 5 -30 12 -30 27 0 11 7 20 15 20
8 0 15 -7 15 -15 0 -8 7 -15 15 -15 17 0 21 45 5 55 -19 12 -46 13 -63 4z"/>
<path d="M3403 1119 c-19 -7 -23 -16 -23 -49 0 -37 3 -42 30 -51 31 -11 43
-49 15 -49 -8 0 -15 7 -15 15 0 8 -7 15 -16 15 -11 0 -14 -8 -12 -27 3 -25 7
-28 43 -28 l40 0 3 47 c3 44 2 46 -27 53 -22 5 -31 13 -31 26 0 10 7 19 15 19
8 0 15 -7 15 -15 0 -8 7 -15 16 -15 11 0 14 8 12 26 -3 31 -32 45 -65 33z"/>
<path d="M3510 1116 c-11 -11 -14 -134 -4 -160 7 -19 69 -22 80 -4 14 22 10
149 -5 161 -17 15 -58 16 -71 3z m51 -41 c1 -8 1 -26 1 -40 0 -55 -3 -65 -16
-65 -10 0 -14 16 -15 60 0 47 3 60 14 60 8 0 15 -7 16 -15z"/>
<path d="M3648 1123 c-10 -3 -19 -10 -19 -16 -13 -134 -5 -167 41 -167 34 0
60 34 40 54 -8 8 -15 6 -26 -8 -19 -27 -27 -15 -29 45 -2 55 9 71 29 43 17
-23 39 -9 30 19 -3 12 -8 23 -9 25 -5 6 -41 8 -57 5z"/>
<path d="M3753 1117 c-5 -6 -8 -48 -8 -92 1 -67 3 -80 18 -83 15 -3 17 7 17
87 0 87 -8 114 -27 88z"/>
<path d="M3815 1121 c-3 -2 -5 -44 -5 -93 l0 -88 45 0 c33 0 45 4 45 15 0 10
-10 15 -31 15 -26 0 -30 3 -27 23 2 14 10 22 23 22 28 0 25 29 -2 33 -15 2
-23 10 -23 23 0 15 7 19 31 19 24 0 30 4 27 17 -2 13 -13 18 -41 18 -21 1 -40
-1 -42 -4z"/>
<path d="M3928 1112 c-9 -10 -7 -14 9 -18 18 -5 21 -14 21 -67 0 -87 0 -87 17
-87 12 0 15 15 15 74 0 58 3 75 16 80 9 3 14 12 12 18 -6 17 -76 17 -90 0z"/>
<path d="M4047 1124 c-3 -4 3 -28 14 -55 10 -28 19 -68 19 -89 0 -29 4 -40 15
-40 8 0 15 3 16 8 0 4 2 23 3 42 2 19 11 52 20 72 9 21 16 44 16 52 0 26 -28
7 -40 -27 l-11 -32 -14 31 c-14 33 -28 47 -38 38z"/>
<path d="M3497 793 c-4 -3 -7 -13 -7 -22 1 -13 3 -13 11 2 11 19 8 33 -4 20z"/>
<path d="M1565 779 c-4 -6 -5 -12 -2 -15 2 -3 7 2 10 11 7 17 1 20 -8 4z"/>
<path d="M1586 774 c-9 -24 -2 -26 12 -4 7 11 8 20 3 20 -5 0 -12 -7 -15 -16z"/>
<path d="M3056 783 c5 -5 12 -12 16 -18 4 -6 8 -2 8 8 0 9 -7 17 -17 17 -9 0
-12 -3 -7 -7z"/>
<path d="M3463 775 c-3 -9 -3 -18 -1 -21 3 -3 8 4 11 16 6 23 -1 27 -10 5z"/>
<path d="M1703 769 c35 -21 10 -85 -48 -120 -16 -11 -24 -19 -18 -19 7 0 19
-13 28 -30 9 -16 23 -30 32 -30 15 0 15 2 2 13 -42 35 -44 46 -10 75 39 34 56
85 35 107 -9 8 -21 15 -27 15 -7 0 -4 -5 6 -11z"/>
<path d="M1993 773 c-7 -2 -13 -12 -13 -21 1 -15 2 -15 11 1 6 10 22 17 39 17
l28 0 -29 -54 c-34 -63 -53 -81 -74 -72 -9 3 -13 2 -10 -4 14 -22 46 -9 70 30
14 22 31 40 38 40 9 0 9 2 -1 8 -9 7 -7 15 11 34 l23 25 -40 1 c-23 0 -47 -2
-53 -5z"/>
<path d="M2116 765 c4 -8 8 -15 10 -15 2 0 4 7 4 15 0 8 -4 15 -10 15 -5 0 -7
-7 -4 -15z"/>
<path d="M2350 766 c0 -9 5 -16 10 -16 6 0 10 4 10 9 0 6 -4 13 -10 16 -5 3
-10 -1 -10 -9z"/>
<path d="M2837 773 c-13 -12 -7 -26 6 -15 6 5 21 12 32 15 16 4 15 5 -6 6 -14
0 -29 -2 -32 -6z"/>
<path d="M2908 773 c6 -2 18 -2 25 0 6 3 1 5 -13 5 -14 0 -19 -2 -12 -5z"/>
<path d="M1602 748 c-27 -30 -38 -74 -22 -93 7 -8 17 -15 22 -15 5 0 3 7 -6
15 -18 19 -7 56 26 93 12 12 17 22 11 22 -5 0 -19 -10 -31 -22z"/>
<path d="M2256 741 c-9 -10 -19 -34 -23 -54 -4 -29 -2 -37 17 -47 12 -6 24 -9
28 -6 3 3 0 6 -6 6 -26 0 -32 37 -12 75 22 44 21 54 -4 26z"/>
<path d="M2174 728 c-22 -25 -24 -31 -24 -54 0 -8 -4 -12 -10 -9 -6 3 -7 -1
-4 -9 9 -23 19 -20 21 6 1 13 9 28 17 34 9 6 13 14 9 17 -3 4 0 13 7 22 20 24
6 17 -16 -7z"/>
<path d="M2668 728 c-9 -13 -16 -27 -18 -33 -1 -5 -6 -20 -11 -32 -5 -13 -5
-23 0 -23 5 0 11 14 15 30 3 19 12 30 23 31 11 0 13 3 6 6 -9 3 -10 10 -3 24
15 26 6 24 -12 -3z"/>
<path d="M2912 718 c-1 -18 -5 -46 -8 -63 -6 -26 -5 -28 9 -17 9 8 13 21 10
29 -4 10 -2 14 5 9 6 -3 14 -2 17 4 4 6 1 9 -7 8 -9 -2 -12 7 -10 30 1 17 -1
32 -6 32 -4 0 -9 -15 -10 -32z"/>
<path d="M3195 730 c-3 -11 -10 -20 -14 -20 -4 0 -8 -6 -8 -12 0 -7 -3 -23 -7
-35 -6 -18 -4 -23 11 -23 11 0 14 3 7 8 -12 8 -1 52 13 52 5 0 10 11 11 25 2
30 -4 33 -13 5z"/>
<path d="M3315 726 c-12 -13 -19 -28 -17 -34 2 -6 -2 -20 -8 -31 -6 -12 -7
-21 -2 -21 5 0 14 15 19 33 5 17 14 31 19 30 5 -1 9 10 9 23 0 13 0 24 0 24 0
0 -9 -11 -20 -24z"/>
<path d="M1754 698 c-16 -25 -13 -58 4 -57 10 0 12 3 5 6 -10 3 -9 11 2 34 15
27 5 42 -11 17z"/>
<path d="M1799 694 c-21 -25 -22 -54 -1 -53 10 0 12 3 5 6 -10 3 -9 11 2 34
17 32 15 38 -6 13z"/>
<path d="M1875 700 c3 -5 1 -19 -5 -30 -6 -11 -7 -20 -2 -20 6 0 12 10 16 23
8 31 7 37 -5 37 -5 0 -7 -4 -4 -10z"/>
<path d="M2114 702 c-6 -4 -14 -19 -18 -34 -5 -23 -3 -28 11 -27 10 0 13 3 6
6 -9 3 -8 11 4 29 16 26 15 38 -3 26z"/>
<path d="M2399 675 c-8 -18 -11 -31 -5 -29 14 5 36 53 28 58 -4 2 -14 -11 -23
-29z"/>
<path d="M2445 690 c-23 -26 -28 -50 -9 -50 8 0 11 6 7 15 -3 9 3 25 12 35 10
11 16 20 13 20 -3 0 -13 -9 -23 -20z"/>
<path d="M2474 683 c-10 -41 -43 -97 -65 -111 -15 -10 -24 -10 -42 -1 -20 11
-21 11 -8 -4 18 -23 35 -21 65 6 28 24 82 137 66 137 -5 0 -13 -12 -16 -27z"/>
<path d="M2520 695 c0 -8 -4 -15 -8 -15 -4 0 -8 -9 -8 -20 0 -16 3 -18 13 -7
17 16 25 57 12 57 -5 0 -9 -7 -9 -15z"/>
<path d="M2551 687 c-15 -39 -14 -47 7 -47 14 0 14 2 3 9 -12 8 -12 12 -2 25
7 8 11 21 8 28 -3 8 -9 1 -16 -15z"/>
<path d="M2595 693 c-12 -29 -12 -53 0 -53 6 0 11 8 11 18 1 9 4 25 9 35 4 10
3 17 -3 17 -5 0 -13 -8 -17 -17z"/>
<path d="M2695 678 c-7 -18 -11 -35 -9 -37 5 -5 4 -6 26 37 9 17 13 32 7 32
-5 0 -16 -15 -24 -32z"/>
<path d="M2737 682 c-15 -16 -24 -31 -20 -35 9 -10 25 -9 19 2 -3 5 4 20 15
35 27 34 20 33 -14 -2z"/>
<path d="M2780 696 c0 -8 -7 -21 -15 -30 -14 -13 -13 -15 4 -13 12 1 17 6 13
16 -3 9 -1 12 5 8 7 -5 9 0 6 13 -6 23 -13 26 -13 6z"/>
<path d="M2986 688 c-18 -25 -21 -48 -6 -48 5 0 7 7 4 15 -4 10 0 15 12 16 12
0 14 3 6 6 -10 4 -10 8 -1 19 6 8 9 14 6 14 -3 0 -13 -10 -21 -22z"/>
<path d="M3021 694 c0 -11 3 -14 6 -6 3 7 2 16 -1 19 -3 4 -6 -2 -5 -13z"/>
<path d="M3055 700 c-3 -5 -4 -10 -1 -10 3 0 1 -11 -4 -25 -5 -14 -7 -25 -5
-25 5 0 35 56 35 65 0 9 -18 6 -25 -5z"/>
<path d="M3095 700 c3 -5 8 -10 11 -10 2 0 4 5 4 10 0 6 -5 10 -11 10 -5 0 -7
-4 -4 -10z"/>
<path d="M3122 685 c-15 -32 -15 -45 -1 -45 5 0 8 4 5 9 -3 4 1 17 9 27 16 22
19 34 7 34 -5 0 -14 -11 -20 -25z"/>
<path d="M3242 683 c-6 -15 -9 -30 -5 -34 5 -4 15 8 24 27 11 22 13 34 5 34
-6 0 -17 -12 -24 -27z"/>
<path d="M3345 678 c-7 -18 -11 -35 -9 -37 5 -5 4 -6 26 37 9 17 13 32 7 32
-5 0 -16 -15 -24 -32z"/>
<path d="M3415 700 c3 -5 8 -10 11 -10 2 0 4 5 4 10 0 6 -5 10 -11 10 -5 0 -7
-4 -4 -10z"/>
<path d="M1839 684 c-18 -22 -20 -44 -3 -44 8 0 11 6 8 15 -4 8 -1 22 6 30 7
8 10 15 7 15 -2 0 -11 -7 -18 -16z"/>
<path d="M3212 680 c-15 -25 -15 -40 0 -40 6 0 8 3 5 6 -3 4 -2 15 4 26 14 26
7 32 -9 8z"/>
<path d="M2354 668 c-10 -12 -14 -18 -7 -15 6 4 13 3 15 -3 1 -5 8 2 15 15 14
31 3 32 -23 3z"/>
<path d="M3402 670 c14 -22 24 -19 15 5 -4 8 -11 15 -17 15 -6 0 -6 -7 2 -20z"/>
<path d="M3370 658 c0 -9 7 -19 16 -22 15 -6 15 -4 3 11 -7 10 -15 20 -16 22
-2 2 -3 -3 -3 -11z"/>
</g>
</svg>
